<svg width="119" height="52" viewBox="0 0 119 52" xmlns="http://www.w3.org/2000/svg" xmlns:xlink="http://www.w3.org/1999/xlink"><title>Fuel Logo</title><defs><path id="a" d="M0 52h119V0H0z"/></defs><g fill="none" fill-rule="evenodd"><path d="M80.994 29.118c0-2.611-1.136-6.988-6.104-6.988-4.542 0-6.387 4.164-6.67 6.988h12.774zm-12.705 7.341c.285 4.447 4.756 6.564 9.795 6.564 3.69 0 6.672-.494 9.581-1.48l1.42 7.269C85.535 50.293 81.208 51 76.523 51 64.742 51 58 44.223 58 33.424 58 24.671 63.465 15 75.528 15 86.743 15 91 23.684 91 32.224c0 1.835-.212 3.458-.354 4.235H68.289z" fill="#FEFEFE"/><mask id="b" fill="#fff"><use xlink:href="#a"/></mask><path fill="#FEFEFE" mask="url(#b)" d="M94 51h10V1H94zM106 44.535c0-3.865 2.688-6.535 6.536-6.535 3.776 0 6.391 2.6 6.464 6.535 0 3.724-2.614 6.465-6.61 6.465-3.702 0-6.39-2.741-6.39-6.465M56.716 40.065V16.481h-10.79v20.672c0 .924-.143 1.705-.427 2.344-.639 1.706-2.413 3.765-5.394 3.765-3.833 0-5.466-3.055-5.466-8.098V16.48h-.014v-.063H15.333v-1.713c0-3.41 1.491-6.18 5.041-6.18 1.419 0 2.556.212 3.479.496L24.278.71C22.787.356 20.94 0 18.598 0c-3.193 0-6.885.923-9.654 3.481-3.052 2.841-4.33 7.458-4.33 11.65v1.35H0v7.957h4.615v26.78h10.79v-26.62h8.444V36.87C23.85 47.595 28.96 52 36.06 52c6.245 0 9.512-3.552 10.86-5.684h.213l.498 4.902H57a223.124 223.124 0 0 1-.284-11.153"/></g></svg>