<?xml version="1.0" encoding="UTF-8" standalone="no"?>
<svg width="119px" height="52px" viewBox="0 0 119 52" version="1.1" xmlns="http://www.w3.org/2000/svg" xmlns:xlink="http://www.w3.org/1999/xlink">
    <!-- Generator: Sketch 50.2 (55047) - http://www.bohemiancoding.com/sketch -->
    <title>Fuel Logo</title>
    <desc>Created with Sketch.</desc>
    <defs>
        <polygon id="path-1" points="0 52 119 52 119 0 0 0"></polygon>
    </defs>
    <g id="Home" stroke="none" stroke-width="1" fill="none" fill-rule="evenodd">
        <g id="Desktop-1440-+" transform="translate(-661.000000, -4230.000000)">
            <g id="Fuel-Logo" transform="translate(661.000000, 4230.000000)">
                <g id="Group-7">
                    <path d="M80.9935409,29.1180332 C80.9935409,26.5068863 79.8578992,22.1302613 74.8901948,22.1302613 C70.3476281,22.1302613 68.5026472,26.2937315 68.2196103,29.1180332 L80.9935409,29.1180332 Z M68.289496,36.4591324 C68.5736976,40.906423 73.0452139,43.0229116 78.0839687,43.0229116 C81.7739305,43.0229116 84.7557179,42.5294118 87.6652901,41.5424122 L89.0851334,48.8116875 C85.5349428,50.2933453 81.2078568,51 76.5231893,51 C64.7416349,51 58,44.223066 58,33.4239928 C58,24.6707427 63.4650572,15 75.5284837,15 C86.7427997,15 91,23.6837431 91,32.2238383 C91,34.0588235 90.7880136,35.6818123 90.6459127,36.4591324 L68.289496,36.4591324 Z" id="Fill-1" fill="#FEFEFE"></path>
                    <mask id="mask-2" fill="white">
                        <use xlink:href="#path-1"></use>
                    </mask>
                    <g id="Clip-4"></g>
                    <polygon id="Fill-3" fill="#FEFEFE" mask="url(#mask-2)" points="94 51 104 51 104 1 94 1"></polygon>
                    <path d="M106,44.534599 C106,40.66989 108.687723,38 112.536353,38 C116.312277,38 118.927294,40.5995387 119,44.534599 C119,48.2586054 116.386174,51 112.390942,51 C108.687723,51 106,48.2586054 106,44.534599" id="Fill-5" fill="#FEFEFE" mask="url(#mask-2)"></path>
                    <path d="M56.715734,40.0650195 L56.715734,16.4806959 L45.9252749,16.4806959 L45.9252749,37.1526837 C45.9252749,38.0772163 45.7831419,38.8583472 45.4988759,39.4972423 C44.8604423,41.2029057 43.0861096,43.2618268 40.1048113,43.2618268 C36.27188,43.2618268 34.6385153,40.2072553 34.6385153,35.1637146 L34.6385153,16.4806959 L34.624535,16.4806959 L34.624535,16.4177391 L15.3328905,16.4177391 L15.3328905,14.7050805 C15.3328905,11.2949195 16.8241221,8.52481951 20.3739525,8.52481951 C21.7929526,8.52481951 22.9300168,8.73700731 23.8527163,9.02147886 L24.2779504,0.710013004 C22.7867187,0.355589435 20.9401545,0 18.5984548,0 C15.405122,0 11.7131586,0.923366665 8.94389486,3.48127887 C5.89153007,6.32249675 4.61466296,10.9393301 4.61466296,15.1317878 L4.61466296,16.4806959 L0,16.4806959 L0,24.4377382 L4.61466296,24.4377382 L4.61466296,51.2177032 L15.405122,51.2177032 L15.405122,24.5986279 L23.8492213,24.5986279 L23.8492213,36.8693781 C23.8492213,47.5953545 28.9590197,52 36.0586805,52 C42.304378,52 45.5711074,48.4476032 46.919041,46.3163984 L47.1322405,46.3163984 L47.6297061,51.2177032 L57,51.2177032 C56.857867,48.3053675 56.715734,44.6119008 56.715734,40.0650195" id="Fill-6" fill="#FEFEFE" mask="url(#mask-2)"></path>
                </g>
            </g>
        </g>
    </g>
</svg>